<svg width="130" height="212" viewBox="0 0 130 212" fill="none" xmlns="http://www.w3.org/2000/svg">
<path d="M64.7011 185.457L102.969 183.557C102.969 183.557 97.2408 159.188 93.9507 155.856C90.6599 152.524 81.8846 147.345 77.1324 147.345C72.3789 147.345 64.7011 147.679 64.7011 147.679C64.7011 147.679 57.0227 147.345 52.2698 147.345C47.5163 147.345 38.7416 152.524 35.4509 155.856C32.1601 159.188 26.4316 183.557 26.4316 183.557L64.7011 185.457Z" fill="#FFDABF"/>
<path d="M64.8733 129.077C72.5138 136.24 78.9553 139.35 90.5062 135.796C89.1734 134.907 87.6187 132.241 87.1742 130.242C92.2836 132.02 98.7251 134.241 104.723 131.353C103.369 130.158 96.5046 130.242 93.3938 121.801C90.2843 113.361 95.8529 103.281 98.2346 98.2544C102.233 89.813 124.408 65.2529 110.179 36.4672C104.173 24.3165 86.5911 6.02477 64.8733 13.6379C43.1549 6.02477 25.5729 24.3165 19.5665 36.4672C5.33792 65.2529 27.5115 89.813 31.51 98.2544C33.8911 103.281 39.4623 113.361 36.3521 121.801C33.242 130.242 26.3766 130.158 25.0231 131.353C31.0208 134.241 37.4624 132.02 42.5718 130.242C42.1273 132.241 40.5725 134.907 39.2397 135.796C50.7906 139.35 57.2329 136.24 64.8733 129.077Z" fill="#8C5A14"/>
<path d="M83.6352 151.561C80.1525 145.342 80.9269 119.94 81.8939 115.791H47.8474C48.8144 119.94 49.5888 145.342 46.1055 151.561H83.6352Z" fill="#FFDABF"/>
<path d="M79.7295 121.21L47.8477 115.79C48.4048 118.18 48.8839 133.017 48.2728 141.43C59.2687 152.009 77.9276 140.902 79.7295 121.21Z" fill="#FFB082"/>
<path d="M101.433 78.8062C102.637 75.4674 112.49 74.4518 112.49 79.4073C112.49 84.3654 111.237 87.9694 109.773 92.0238C108.312 96.0809 104.114 98.9892 100.945 98.3148C97.2328 97.5211 100.945 80.159 101.433 78.8062Z" fill="#FFB082"/>
<path d="M27.7089 78.8062C26.504 75.4674 16.6504 74.4518 16.6504 79.4073C16.6504 84.3654 17.9066 87.9694 19.3694 92.0238C20.8308 96.0809 25.0252 98.9892 28.1953 98.3148C31.9086 97.5211 28.1953 80.159 27.7089 78.8062Z" fill="#FFB082"/>
<path d="M66.0574 17.0003C82.8703 17.0003 111.224 27.4077 108.984 54.7219C107.996 66.764 106.758 75.2082 106.011 81.3878C104.759 91.7426 105.514 104.668 97.4208 115.534C88.4535 127.564 72.409 135.371 66.0574 135.043C59.7098 134.72 43.6639 127.564 34.6966 115.534C26.603 104.668 27.3574 91.7426 26.1065 81.3878C25.3615 75.2082 24.124 66.764 23.133 54.7219C20.8952 27.4077 47.3805 17.0003 66.0574 17.0003Z" fill="#FFDABF"/>
<path d="M64.8355 98.3132C67.3772 98.2532 70.8138 98.182 71.2463 96.8098C71.6788 95.4377 66.7401 91.7791 64.8355 91.7331C62.9315 91.6864 57.992 95.4377 58.4252 96.8098C58.8577 98.182 62.3857 98.3712 64.8355 98.3132Z" fill="#FFB082"/>
<path d="M41.5352 73.417C41.5545 77.1763 43.0753 80.2092 44.9472 80.2012C46.8159 80.1945 46.5546 77.1583 46.5413 73.3978C46.5207 69.6245 46.7539 66.559 44.8793 66.5657C43.0113 66.5737 41.5259 69.6425 41.5352 73.417Z" fill="#041B26"/>
<path d="M84.6286 73.417C84.61 77.1763 83.0898 80.2092 81.2179 80.2012C79.3479 80.1945 79.6092 77.1583 79.6238 73.3978C79.6432 69.6245 79.4106 66.559 81.2846 66.5657C83.1538 66.5737 84.6399 69.6425 84.6286 73.417Z" fill="#041B26"/>
<path d="M76.0921 58.4692C74.9193 57.1537 85.1927 55.507 92.7585 58.6332C84.9468 57.9214 76.8798 59.3529 76.0921 58.4692Z" fill="#8C5A14"/>
<path d="M50.6657 58.6274C51.8386 57.3119 41.5652 55.6652 33.9994 58.7914C41.8111 58.0796 49.878 59.5111 50.6657 58.6274Z" fill="#8C5A14"/>
<path d="M101.769 46.7181C99.1969 51.8628 104.102 72.7082 107.767 73.0414C111.432 73.3746 113.431 49.717 112.099 46.7181C110.766 43.7192 104.102 42.0532 101.769 46.7181Z" fill="#8C5A14"/>
<path d="M64.4507 32.9445C64.4507 36.0547 69.2822 39.8865 72.487 42.2743C65.1171 42.5522 54.6771 39.9425 49.7896 35.055C50.0588 37.1656 53.1216 40.0531 56.2871 43.052C47.9569 43.5518 40.1266 41.386 35.4617 37.3875C35.4617 41.386 26.1312 69.0421 19.1346 75.373C17.3579 70.7088 15.6919 67.8206 14.4697 61.8229C12.0899 50.142 12.8036 13.8411 34.5734 14.7294C37.6835 -3.04183 56.669 -1.70834 75.8903 3.17847C102.102 9.84261 114.098 29.835 120.318 53.8259C103.768 55.0474 68.8903 38.2758 64.4507 32.9445Z" fill="#8C5A14"/>
<path d="M124.477 169.763C120.013 162.655 92.4682 152.325 85.7048 150.535C85.0277 153.007 70.6252 155.463 70.6252 155.463L64.8727 174.409L59.1202 155.463C59.1202 155.463 44.7164 153.007 44.04 150.535C37.2765 152.325 9.73165 162.655 5.26668 169.763C0.801706 176.872 0.182597 198.183 0 212H64.8727H129.745C129.561 198.183 128.944 176.872 124.477 169.763Z" fill="#00AA87"/>
<path d="M84.0825 142.014C81.3076 145.611 74.6235 152.011 70.625 155.464C70.625 155.464 78.2881 169.004 83.6194 180C89.9503 167.338 91.9495 158.675 93.7875 151.702C93.7875 151.702 87.0267 147.334 84.0825 142.014Z" fill="#87E0CA"/>
<path d="M45.6633 142.014C48.4376 145.611 55.123 152.011 59.1215 155.464C59.1215 155.464 51.4578 169.004 46.1265 180C39.7955 167.338 37.7963 158.675 35.959 151.702C35.959 151.702 42.7191 147.334 45.6633 142.014Z" fill="#87E0CA"/>
<path d="M77.2542 108.184C73.8395 111.067 70.3308 112.138 64.3074 112.138C58.2853 112.138 54.776 111.067 51.3599 108.184C51.0331 107.907 50.5432 107.949 50.2667 108.275C49.9909 108.603 50.0318 109.093 50.3593 109.369C54.0915 112.519 57.8719 113.689 64.3074 113.689C70.7442 113.689 74.5247 112.519 78.2562 109.369C78.583 109.092 78.624 108.603 78.3475 108.275C78.0717 107.949 77.5824 107.907 77.2542 108.184Z" fill="#AB242B"/>
</svg>
